<?xml version="1.0" standalone="no"?>
<!DOCTYPE svg PUBLIC "-//W3C//DTD SVG 20010904//EN"
 "http://www.w3.org/TR/2001/REC-SVG-20010904/DTD/svg10.dtd">
<svg version="1.0" xmlns="http://www.w3.org/2000/svg"
 width="171.000000pt" height="171.000000pt" viewBox="0 0 171.000000 171.000000"
 preserveAspectRatio="xMidYMid meet">
<metadata>
Created by potrace 1.14, written by Peter Selinger 2001-2017
</metadata>
<g transform="translate(0.000000,171.000000) scale(0.100000,-0.100000)"
fill="#000000" stroke="none">
<path d="M854 1449 c-16 -17 -92 -62 -172 -101 -109 -53 -156 -83 -197 -122
-81 -80 -128 -189 -94 -223 8 -8 1 -22 -24 -49 -74 -83 -77 -130 -14 -190 39
-38 99 -84 110 -84 2 0 2 22 -1 49 -4 43 -1 53 21 75 22 22 35 26 86 26 69 0
91 -15 91 -63 0 -32 -15 -59 -78 -136 -19 -23 -31 -41 -29 -41 3 0 36 13 73
29 38 16 70 28 72 26 5 -4 -46 -104 -70 -138 -11 -16 -18 -31 -14 -34 7 -8
162 62 244 109 36 21 68 36 71 32 10 -9 5 -145 -7 -186 -6 -21 -7 -38 -2 -38
24 0 161 181 211 280 l33 65 28 -63 c15 -34 33 -83 40 -110 7 -26 15 -51 20
-56 9 -12 74 129 93 204 30 115 15 221 -42 298 -29 39 -23 40 35 6 l44 -26 -7
23 c-4 13 -28 55 -53 93 -47 71 -102 117 -175 149 l-42 18 70 -5 70 -4 -25 20
c-14 12 -54 34 -90 51 -54 25 -82 31 -161 35 l-96 5 13 36 c15 42 18 71 6 71
-5 0 -21 -14 -38 -31z m-33 -95 l-22 -37 23 7 c97 30 166 30 246 1 l37 -13
-30 -7 c-16 -4 -48 -12 -70 -17 l-40 -10 71 -18 c98 -25 165 -61 208 -111 20
-23 34 -44 32 -46 -2 -2 -35 5 -72 16 -75 21 -134 33 -134 26 0 -2 27 -16 61
-31 109 -49 189 -169 189 -283 0 -41 -30 -166 -47 -193 -2 -4 -22 28 -45 72
-39 77 -130 190 -170 211 -17 9 -18 8 -9 -8 6 -10 27 -40 46 -67 19 -26 35
-56 35 -65 0 -27 -68 -161 -108 -214 l-37 -48 -12 72 c-18 108 -79 220 -136
251 -21 11 -21 11 -5 -13 36 -51 70 -112 78 -139 8 -27 5 -31 -38 -58 -54 -34
-164 -92 -174 -92 -4 0 2 20 13 45 35 78 43 154 25 225 -21 81 -21 80 20 73
l36 -6 -17 27 c-10 15 -16 28 -14 31 2 2 39 21 82 43 l78 40 -88 7 c-48 3 -99
7 -112 8 l-25 2 33 38 c24 27 44 39 72 43 21 4 39 10 39 14 0 13 -70 22 -114
14 -56 -9 -83 -25 -136 -78 -24 -25 -50 -46 -57 -46 -19 0 -34 37 -27 66 11
43 -14 19 -27 -27 -8 -27 -15 -36 -20 -27 -5 7 -6 21 -3 31 9 30 -12 19 -29
-15 l-16 -33 0 28 c-1 39 23 87 70 141 48 55 111 95 214 137 44 17 91 40 105
50 38 28 44 23 21 -17z m-174 -322 c-10 -9 -22 -12 -34 -7 -17 8 -17 8 2 13
25 5 44 22 26 22 -11 0 -11 3 0 17 13 15 14 14 17 -7 2 -12 -3 -29 -11 -38z
m-36 -52 c27 0 49 -3 49 -7 0 -5 -39 -30 -86 -58 -110 -64 -127 -83 -134 -146
l-5 -51 -47 46 c-58 55 -61 84 -18 144 17 23 32 42 35 42 3 0 -8 -19 -25 -42
-32 -44 -36 -64 -19 -88 8 -12 9 -10 4 8 -8 27 8 54 69 120 39 42 42 44 85 38
24 -3 66 -6 92 -6z m54 -72 c-12 -29 -19 -34 -62 -39 -26 -3 -49 -5 -50 -5 -2
2 119 76 124 76 1 0 -4 -15 -12 -32z m51 -183 c-5 -24 -14 -39 -29 -44 -30
-12 -31 -8 -13 28 9 16 16 41 16 54 0 13 3 27 7 31 14 13 26 -32 19 -69z"/>
<path d="M461 932 c-12 -24 -21 -46 -18 -48 2 -2 28 9 58 26 52 29 53 30 22
30 -22 0 -33 5 -35 18 -3 12 -11 4 -27 -26z"/>
</g>
</svg>
