<svg width="43" height="43" viewBox="0 0 70 70" fill="none" xmlns="http://www.w3.org/2000/svg">
<path d="M44.8745 32.6152C44.8745 31.558 44.9281 30.4749 45.0123 29.3354H44.9027C44.3309 30.4751 43.8733 31.5026 43.2758 32.6152L40.9185 36.464V36.5174H44.8745V32.6152Z" fill="#404040"/>
<path d="M35.002 0C15.7052 0 0.00146484 15.7024 0.00146484 34.9994C0.00146484 54.2956 15.7041 70 35.002 70C54.2996 70 69.9991 54.298 69.9991 35.0006C69.9991 15.7036 54.2994 0 35.002 0ZM62.7858 36.5246C62.34 37.0404 61.7098 37.358 61.027 37.4069C60.9652 37.4114 60.9021 37.4163 60.8403 37.4163C60.8251 37.4163 60.8113 37.4069 60.7983 37.4069C60.7505 37.4093 60.706 37.4209 60.657 37.4209C59.735 37.4209 58.9334 36.9318 58.4794 36.2003L53.8112 32.1694C53.0247 31.4896 52.7249 30.4043 53.0504 29.4163C53.3784 28.4302 54.2689 27.737 55.304 27.6606L56.9273 27.5428C53.8348 18.0003 44.8724 11.0764 34.3127 11.0764C21.2032 11.0764 10.538 21.7417 10.538 34.8523C10.538 47.9612 21.203 58.6276 34.3127 58.6276C41.9011 58.6276 49.099 54.9539 53.5664 48.8037C54.3997 47.6578 56.0065 47.3988 57.1561 48.2342C58.3045 49.0674 58.5589 50.6756 57.7257 51.824C52.2946 59.3031 43.5421 63.767 34.3129 63.767C18.3687 63.767 5.39704 50.7969 5.39704 34.8523C5.39704 18.9077 18.3689 5.93702 34.3129 5.93702C47.588 5.93702 58.7783 14.9433 62.1581 27.1602L65.2727 26.9332C66.2963 26.8449 67.2904 27.4111 67.756 28.3422C68.2263 29.2705 68.0841 30.3915 67.4046 31.1769L62.7858 36.5246ZM37.0699 39.6054V36.9259L43.7359 26.1921H48.7762V36.5202H50.892V39.6081H48.7762V43.8104H44.8726V39.6081H37.0701V39.6054H37.0699ZM27.6827 29.2C26.1648 29.2 24.8386 29.9585 23.9172 30.6652L22.7508 27.7096C24.0799 26.7095 26.1398 25.8919 28.524 25.8919C32.508 25.8919 34.7031 28.2236 34.7031 31.4212C34.7031 34.3765 32.5628 36.7345 30.0154 39.0101L28.3891 40.3674V40.4199H35.0293V43.8088H22.5347V41.3137L24.8099 39.2552C28.6602 35.8131 30.5306 33.8337 30.583 31.7752C30.5844 30.3389 29.7178 29.2 27.6827 29.2Z" fill="#404040"/>
</svg>
