<svg version="1.0" xmlns="http://www.w3.org/2000/svg"
 width="40px" height="40px" viewBox="0 0 512.000000 512.000000"
 preserveAspectRatio="xMidYMid meet">
<g transform="translate(0.000000,512.000000) scale(0.100000,-0.100000)"
fill="#000000" stroke="none">
<path d="M3866 5016 c-26 -25 -26 -26 -26 -201 l0 -175 -1520 0 -1520 0 0 -80
0 -80 1575 0 1576 0 24 25 c24 23 25 29 25 160 l0 135 376 -282 c299 -224 372
-284 362 -293 -7 -7 -176 -148 -375 -314 l-363 -301 0 170 c0 168 0 171 -25
195 l-24 25 -979 0 c-1030 0 -1100 -2 -1302 -46 -165 -36 -275 -75 -445 -160
-386 -192 -674 -482 -865 -869 -107 -216 -165 -418 -190 -655 -89 -856 425
-1682 1235 -1986 185 -69 464 -124 632 -124 l53 0 0 80 0 80 -54 0 c-84 0
-280 28 -389 55 -276 70 -546 217 -760 416 -632 585 -749 1527 -279 2249 249
383 664 669 1104 760 182 37 266 40 1208 40 l920 0 0 -215 c0 -216 0 -216 25
-240 52 -53 42 -59 584 392 321 267 504 425 507 440 4 13 3 34 0 47 -8 34
-989 769 -1033 774 -24 3 -38 -2 -57 -22z" fill="#404040"/>
<path d="M160 4560 l0 -80 80 0 80 0 0 80 0 80 -80 0 -80 0 0 -80z" fill="#404040" />
<path d="M480 4560 l0 -80 80 0 80 0 0 80 0 80 -80 0 -80 0 0 -80z" fill="#404040" />
<path d="M1960 3275 c-8 -2 -49 -9 -90 -15 -232 -38 -459 -157 -636 -334 -215
-215 -333 -478 -350 -782 -20 -340 105 -665 350 -910 174 -174 386 -287 631
-335 103 -21 349 -18 455 5 235 51 437 161 606 330 175 176 287 386 335 631
21 103 18 349 -5 455 -50 234 -160 436 -330 606 -231 231 -536 356 -856 353
-52 -1 -102 -3 -110 -4z m120 -395 l80 0 0 118 0 119 61 -9 c82 -11 168 -34
246 -65 l63 -25 -20 -34 c-11 -19 -29 -49 -40 -68 l-20 -34 70 -40 70 -41 36
65 c20 35 39 64 44 64 32 0 260 -228 260 -260 0 -5 -29 -24 -64 -44 l-65 -36
41 -70 40 -70 31 18 c18 11 48 29 68 41 l37 21 26 -66 c33 -81 66 -216 66
-266 l0 -38 -115 0 -115 0 0 -80 0 -80 118 0 119 0 -9 -61 c-11 -82 -34 -168
-65 -246 -24 -61 -26 -63 -47 -50 -11 8 -42 26 -67 41 l-47 27 -40 -71 -41
-70 65 -36 c35 -20 64 -39 64 -44 0 -32 -228 -260 -260 -260 -5 0 -24 29 -44
64 l-36 64 -70 -40 -70 -41 18 -31 c11 -17 29 -47 41 -67 l21 -37 -63 -25
c-78 -31 -164 -54 -246 -65 l-61 -9 0 119 0 118 -80 0 -80 0 0 -118 0 -119
-61 9 c-82 11 -168 34 -246 65 l-63 25 20 34 c11 19 29 49 40 68 l20 34 -70
40 -70 41 -36 -65 c-20 -35 -39 -64 -44 -64 -32 0 -260 228 -260 260 0 5 29
24 64 44 l65 36 -41 70 -40 70 -31 -18 c-18 -11 -48 -29 -68 -41 l-37 -21 -26
66 c-33 81 -66 216 -66 267 l0 37 115 0 115 0 0 80 0 80 -118 0 -119 0 9 61
c11 82 34 168 65 246 l25 63 34 -20 c19 -11 49 -29 68 -40 l34 -20 40 70 41
70 -65 36 c-35 20 -64 39 -64 44 0 32 228 260 260 260 5 0 24 -29 44 -64 l36
-65 70 41 70 40 -20 34 c-11 19 -29 49 -40 68 l-21 34 78 30 c75 29 194 58
258 64 l30 3 3 -117 3 -118 79 0z" fill="#404040" />
<path d="M2000 2386 c0 -304 2 -336 18 -354 9 -11 108 -74 219 -140 l202 -121
27 47 c15 26 34 57 41 69 14 21 8 25 -166 130 l-181 108 0 297 0 298 -80 0
-80 0 0 -334z" fill="#404040" />
<path d="M3838 2008 c-3 -40 -3 -75 -2 -77 5 -5 148 -19 153 -14 2 1 6 39 9
83 l5 80 -81 0 -80 0 -4 -72z" fill="#404040" />
<path d="M3800 1705 c-7 -35 -13 -68 -13 -72 -2 -8 104 -41 135 -42 12 -1 19
13 28 57 6 31 14 66 17 78 4 19 -2 22 -53 32 -100 21 -100 21 -114 -53z" fill="#404040" />
<path d="M3706 1409 c-15 -39 -26 -71 -25 -72 2 -1 35 -17 72 -35 l68 -32 24
55 c45 101 46 99 -35 129 -39 14 -72 26 -73 26 -1 0 -15 -32 -31 -71z" fill="#404040" />
<path d="M3570 1143 c-19 -32 -36 -61 -38 -64 -2 -4 25 -27 60 -52 l63 -46 43
66 c23 37 42 69 42 73 0 5 -122 80 -131 80 -2 0 -20 -26 -39 -57z" fill="#404040" />
<path d="M3376 893 l-50 -54 58 -57 57 -57 55 59 c30 33 54 62 54 65 0 7 -115
102 -121 100 -2 -1 -26 -26 -53 -56z" fill="#404040" />
<path d="M3155 688 c-27 -22 -51 -43 -53 -47 -1 -4 17 -35 42 -69 l43 -62 67
51 67 52 -23 26 c-52 59 -82 91 -87 90 -4 0 -28 -18 -56 -41z" fill="#404040" />
<path d="M2899 522 l-66 -37 30 -65 c16 -36 31 -67 33 -69 7 -8 144 62 144 73
0 8 -62 120 -74 133 -1 1 -31 -15 -67 -35z" fill="#404040" />
<path d="M2623 406 c-34 -11 -65 -24 -69 -28 -5 -6 22 -134 32 -147 6 -7 154
43 154 52 0 13 -42 130 -49 138 -3 4 -34 -3 -68 -15z" fill="#404040" />
<path d="M2310 336 l-65 -11 3 -40 c1 -22 5 -57 8 -79 l6 -38 57 7 c106 12
103 11 96 67 -10 68 -19 101 -31 104 -5 1 -38 -4 -74 -10z" fill="#404040" />
</g>
</svg>
