<svg width="41" height="41" viewBox="0 0 70 70" fill="none" xmlns="http://www.w3.org/2000/svg">
<path d="M16.2144 0.210845C14.6001 0.632532 13.3001 1.82731 12.7429 3.38052L12.5358 3.97089L12.5144 7.16165C12.4858 10.8514 12.5144 11.0623 13.0429 12.1446C13.5786 13.2339 14.5858 14.1125 15.7786 14.5201C16.8644 14.8926 17.9929 14.8926 19.0786 14.5201C19.8001 14.2741 20.3072 13.9508 20.8858 13.3815C21.4786 12.8052 21.8572 12.2008 22.1215 11.4207L22.3144 10.8584L22.3429 7.70281C22.3715 4.05522 22.3429 3.82329 21.8215 2.77611C21.2501 1.61647 20.2215 0.723897 18.9929 0.316267C18.1786 0.0491982 17.0072 1.90735e-06 16.2144 0.210845Z" fill="#404040"/>
<path d="M51.2286 0.203815C50.3286 0.428716 49.6858 0.787149 48.9929 1.46888C48.3215 2.12249 47.9786 2.66366 47.7072 3.47892C47.5429 3.95683 47.5358 4.04819 47.5143 7.21084C47.4858 10.9357 47.5072 11.0763 48.0429 12.1586C48.5858 13.2339 49.5786 14.0984 50.7429 14.5201C53.1072 15.3635 55.7715 14.2882 56.8572 12.0602C57.3144 11.1044 57.3215 11.0552 57.3215 7.41466C57.3215 4.14659 57.3215 4.10442 57.1572 3.58434C56.6572 2.01004 55.5358 0.850402 54.0072 0.330321C53.2072 0.0491972 52.0429 0 51.2286 0.203815Z" fill="#404040"/>
<path d="M0 39.1466V69.9297H35.0143H70.0214L69.9786 49.007C69.95 37.495 69.9286 23.6566 69.9286 18.252V8.43373H64.9714H60.0143L59.9857 10.24C59.95 11.8986 59.9357 12.1094 59.7643 12.7279C58.5286 17.3173 53.4071 19.6014 49.1071 17.4789C46.9857 16.4317 45.4643 14.3584 45.1 12.0181C45.0429 11.6034 45 10.7952 45 9.88856V8.43373H35.0071H25.0143L24.9857 10.24C24.95 11.8986 24.9357 12.1094 24.7643 12.7279C23.8786 16.0241 20.9286 18.2731 17.5 18.2731C14.2857 18.2731 11.4929 16.3193 10.4286 13.3183C10.1071 12.3976 10 11.5823 10 9.90261V8.45482L6.84286 8.41265C5.1 8.38454 2.85 8.36346 1.84286 8.36346H0V39.1466ZM65 45.3313V65.01H35H5V45.3313V25.6526H35H65V45.3313Z" fill="#404040"/>
<path d="M24.4786 33.243C23.0072 33.3484 21.1786 33.735 19.8929 34.2058C19.3786 34.3956 18.1429 34.9789 18.1429 35.0352C18.1429 35.0984 19.2857 39.0271 19.3072 39.0482C19.3215 39.0693 19.6715 38.9217 20.0786 38.7319C22.8857 37.4247 25.8143 37.3193 27.25 38.4719C27.8357 38.9428 28.1357 39.8213 27.9929 40.6084C27.9 41.1004 27.7786 41.3253 27.4143 41.7189C26.55 42.6466 25.1715 43.0121 22.5643 43.0121H21.4286V45.008V47.004L23.1286 47.0392C24.3286 47.0673 24.9786 47.1095 25.3572 47.1938C27.4286 47.6506 28.5857 48.7329 28.6929 50.3213C28.8 51.8534 27.8643 52.999 26.1072 53.498C25.6 53.6386 25.3857 53.6597 24.1786 53.6597C23.0143 53.6597 22.7143 53.6386 22.0715 53.498C21.0715 53.2731 20.1143 52.9709 19.2572 52.5984C18.8643 52.4297 18.5357 52.3032 18.5143 52.3243C18.4786 52.3524 17.3572 56.4217 17.3572 56.5131C17.3572 56.5974 18.6643 57.1737 19.4286 57.4197C21.1929 57.989 22.9786 58.2279 25.0715 58.1717C28.3786 58.0874 30.8929 57.2159 32.6357 55.5643C33.2857 54.9388 33.7072 54.3695 34.0715 53.6034C34.5072 52.6968 34.6715 51.9378 34.6715 50.8484C34.6715 49.738 34.5572 49.2319 34.0715 48.241C33.3429 46.751 31.8643 45.5844 30.1072 45.1135C29.2643 44.8886 29.3 44.9026 29.5 44.8183C29.6 44.7831 29.9786 44.6074 30.35 44.4458C32.0429 43.6727 33.1857 42.4147 33.6572 40.7912C33.8929 39.9759 33.8929 38.493 33.6572 37.741C32.9143 35.4217 30.8929 33.8825 27.9215 33.3906C26.9072 33.2219 25.5857 33.1657 24.4786 33.243Z" fill="#404040"/>
<path d="M43.4287 35.0773C41.643 35.8926 40.1645 36.5673 40.1573 36.5813C40.1216 36.6094 41.0002 40.6295 41.0645 40.7349C41.093 40.7841 41.943 40.4187 43.4145 39.7369C44.6859 39.1396 45.7359 38.6546 45.7573 38.6546C45.7716 38.6546 45.7859 42.9558 45.7859 48.2128V57.7711H48.5716H51.3573V45.6827V33.5944H49.0216H46.6787L43.4287 35.0773Z" fill="#404040"/>
</svg>
