<svg width="45" height="45" viewBox="0 0 70 70" fill="none" xmlns="http://www.w3.org/2000/svg">
<path d="M57.2852 6.39844C56.8477 6.61719 55.5352 7.71094 54.4141 8.85938L52.3633 10.9375L55.7266 14.2734L59.0625 17.6367L61.1406 15.5859C63.3828 13.3711 63.9844 12.3594 63.9844 10.7188C63.9844 7.4375 60.293 5.05859 57.2852 6.39844Z" fill="#404040"/>
<path d="M10.7187 13.7539C9.51557 14.1367 7.49214 15.9414 6.75385 17.3359L6.15229 18.457L6.07026 37.9805C5.98823 60.4023 5.9062 59.5273 8.20307 61.7969C10.4726 64.0937 9.5976 64.0117 32.0195 63.9297L51.5429 63.8476L52.664 63.2461C54.1406 62.4531 55.8632 60.4844 56.2734 59.1172C56.5195 58.3516 56.6015 53.6211 56.6015 42.4922V26.9336L54.2773 29.2578L51.9531 31.582V44.4883V57.3672L51.2421 58.2148L50.5312 59.0625H31.4179H12.2773L11.621 58.3789L10.9374 57.7226V42.793V27.8906H19.7421H28.5468L35.8203 20.6445L43.0664 13.3984L27.3437 13.4258C17.1718 13.4531 11.2929 13.5625 10.7187 13.7539Z" fill="#404040"/>
<path d="M40.2774 23.0234L31.7461 31.582L30.9531 35.6836C30.4883 37.9258 30.1328 39.8125 30.1602 39.8398C30.1875 39.8398 32.0742 39.5117 34.3438 39.0469L38.4727 38.2266L47.0586 29.6406L55.6445 21.0547L52.3633 17.7734C50.5586 15.9687 49.0274 14.4922 48.9453 14.4922C48.8633 14.4922 44.9805 18.3477 40.2774 23.0234Z" fill="#404040"/>
</svg>
