<svg width="45" height="45" viewBox="0 0 70 70" fill="none" xmlns="http://www.w3.org/2000/svg">
<path d="M64.1666 26.25V20.4167H58.3332V14.5833C58.3332 11.375 55.7082 8.75 52.4999 8.75H11.6666C8.45825 8.75 5.83325 11.375 5.83325 14.5833V55.4167C5.83325 58.625 8.45825 61.25 11.6666 61.25H52.4999C55.7082 61.25 58.3332 58.625 58.3332 55.4167V49.5833H64.1666V43.75H58.3332V37.9167H64.1666V32.0833H58.3332V26.25H64.1666ZM52.4999 55.4167H11.6666V14.5833H52.4999V55.4167ZM17.4999 37.9167H32.0833V49.5833H17.4999V37.9167ZM34.9999 20.4167H46.6666V29.1667H34.9999V20.4167ZM17.4999 20.4167H32.0833V35H17.4999V20.4167ZM34.9999 32.0833H46.6666V49.5833H34.9999V32.0833Z" fill="#404040"/>
</svg>
