<svg width="40" height="40" viewBox="0 0 70 70" fill="none" xmlns="http://www.w3.org/2000/svg">
<path d="M11.7195 3.4893V6.98573L9.09055 7.00713C6.64371 7.03568 6.41407 7.04995 5.86769 7.19979C4.7195 7.50663 3.27041 8.24159 2.49439 8.91233C1.54417 9.72579 0.720636 10.9888 0.285116 12.3089L0.118826 12.8084L0.0950705 38.2467C0.0792334 61.0877 0.087152 63.7492 0.198012 64.2844C0.364301 65.055 0.712718 65.9042 1.11656 66.525C1.50457 67.1101 2.43896 68.0163 3.16747 68.5158C3.83263 68.9725 5.08376 69.5219 5.93896 69.7288L6.61204 69.893H35H63.3881L64.0611 69.736C64.8926 69.5362 66.1595 68.9867 66.793 68.5515C67.5057 68.0734 68.5034 67.0958 68.8756 66.5321C69.0577 66.2538 69.3111 65.7686 69.4457 65.4475C69.9525 64.1845 69.9209 66.1182 69.9209 38.4322C69.9209 14.1142 69.9129 13.2151 69.7704 12.5943C69.224 10.211 67.4503 8.35576 64.8451 7.42813C63.7523 7.04281 63.2851 6.99286 60.6562 6.99286H58.2806V3.49643V0H54.4005H50.5204V3.49643V6.99286H35H19.4797V3.49643V0H15.5996H11.7195V3.4893ZM62.1607 43.7411V62.9358H35H7.83941V43.7411V24.5464H35H62.1607V43.7411Z" fill="#404040"/>
<path d="M24.5079 30.6259C24.4445 30.9042 23.5181 36.4913 23.5181 36.6269C23.5181 36.7411 23.9853 36.7482 31.4129 36.7482H39.3077L38.8246 37.1906C37.5893 38.3395 35.8473 40.3089 34.6278 41.9572C31.1357 46.6595 29.1877 51.7187 28.6255 57.527L28.5701 58.0836H33.5588H38.5396L38.5871 55.6361C38.6346 53.1172 38.7454 51.9327 39.1176 49.9419C40.1312 44.5545 42.4434 39.6096 45.9434 35.3354L46.4819 34.6789V32.5739V30.4689H35.5147H24.5475L24.5079 30.6259Z" fill="#404040"/>
</svg>
