<svg width="40" height="40" viewBox="0 0 70 69" fill="none" xmlns="http://www.w3.org/2000/svg">
<path d="M31.4305 0.0723801C24.7039 0.769646 18.8934 2.99816 13.6981 6.89465C7.58673 11.4884 3.02033 18.297 1.14728 25.6114C-0.260924 31.0939 -0.370299 36.4122 0.805482 41.8673C3.53986 54.4864 13.411 64.672 25.9617 67.8575C29.4754 68.7462 34.1512 69.1017 37.6649 68.7599C41.3699 68.3907 45.3348 67.3243 48.6434 65.8341C50.1199 65.1642 52.2117 64.0294 52.2117 63.8927C52.2117 63.756 50.9539 61.7735 50.8719 61.7735C50.8172 61.7735 49.9969 62.17 49.0535 62.6622C35.6141 69.5665 19.6043 66.2989 9.89728 54.6642C7.72345 52.0528 5.53595 48.17 4.42853 44.9571C2.47345 39.2833 2.13165 32.8986 3.49884 27.1153C5.659 17.9415 11.8934 10.0665 20.2742 5.93762C29.3934 1.43957 39.825 1.48058 48.8621 6.04699C61.0028 12.1857 67.825 25.338 65.9383 38.9552C65.5965 41.4708 64.6258 44.9435 63.6961 47.0489L63.409 47.7052L62.9715 47.3907C62.7254 47.2267 61.8094 46.5704 60.9207 45.9415C60.0321 45.3126 59.2801 44.8204 59.2391 44.8614C59.1571 44.9435 57.9539 57.713 58.0223 57.795C58.077 57.836 69.2332 52.7638 69.7117 52.4767C69.9578 52.3263 70.1629 52.504 67.7977 50.836C66.7039 50.0704 65.7606 49.4005 65.7059 49.3458C65.6512 49.2911 65.7879 48.8126 66.0203 48.2931C67.0867 45.9278 68.1121 42.3868 68.5496 39.4884C68.9051 37.2052 68.9735 33.1036 68.7 30.7384C67.7567 22.6857 64.325 15.4669 58.8016 9.99817C53.1824 4.43371 46.2781 1.09777 38.4031 0.181755C36.8719 0.00402069 32.743 -0.0643387 31.4305 0.0723801Z" fill="#404040"/>
<path d="M19.3308 23.9161C16.3093 24.381 13.8347 26.5138 12.6453 29.6857L12.2898 30.6017H13.5749H14.8464L15.0242 29.9728C15.2703 29.1251 16.0632 27.922 16.8562 27.2247C17.7585 26.4318 18.7292 26.09 20.0691 26.09C21.3269 26.09 22.1472 26.4318 22.6531 27.1974C22.9402 27.5939 22.9675 27.7853 22.9128 28.5509C22.8035 30.2189 21.8738 31.5177 20.2605 32.2696C19.5222 32.6114 19.1394 32.7071 18.1003 32.7618L16.8152 32.8302L16.5554 33.8009L16.2956 34.7716L17.7449 34.84C20.1374 34.963 21.1218 35.6739 21.2722 37.4103C21.4636 39.5568 19.9324 41.6622 17.5535 42.5099C16.5828 42.8653 14.8191 42.9337 14.0261 42.6466C12.6863 42.1818 12.0574 41.0196 12.1941 39.256L12.2624 38.2579H11.0593H9.84252L9.67846 38.8321C9.43236 39.7208 9.45971 41.3614 9.73315 42.1681C10.4578 44.2735 12.9734 45.381 16.1589 44.9708C18.4968 44.67 20.2742 43.836 21.7234 42.3732C23.7468 40.3224 24.6218 37.1505 23.7058 35.2911C23.3367 34.5665 22.6394 33.9786 21.9695 33.8146C21.7507 33.7599 21.5867 33.6778 21.5867 33.6232C21.5867 33.5821 21.9695 33.3224 22.4206 33.0626C24.0066 32.1603 25.073 30.8478 25.4695 29.3028C26.3035 26.1036 24.7312 24.1075 21.1765 23.8614C20.616 23.8204 19.782 23.8478 19.3308 23.9161Z" fill="#404040"/>
<path d="M36.6941 23.9161C34.7938 24.2032 33.3992 24.9415 31.827 26.5001C29.9949 28.2911 28.9969 30.0138 27.8621 33.3224C26.6727 36.7677 26.3035 40.0626 26.9051 41.963C27.6024 44.1642 29.6531 45.2853 32.5106 45.0255C35.9148 44.7111 38.4578 42.9474 39.9891 39.8165C41.5887 36.5489 41.2195 33.3771 39.0594 32.0236C37.3914 30.9708 34.2469 31.0939 32.1824 32.297C31.868 32.4884 31.2801 32.9259 30.8836 33.295C30.159 33.9376 30.159 33.9513 30.2547 33.5411C30.4461 32.7345 31.3348 30.6564 31.8816 29.713C32.6199 28.4415 34.0555 27.006 35.0809 26.5411C36.1746 26.0216 37.9656 25.9259 38.7859 26.3497C39.4832 26.7052 39.907 27.3888 40.0027 28.3458L40.0848 29.0978H41.2879H42.491L42.5867 28.4689C42.7781 27.1153 42.2312 25.4611 41.3699 24.8048C40.3172 23.9982 38.4441 23.6427 36.6941 23.9161ZM36.7215 33.8556C38.2117 34.6212 38.6082 36.3165 37.8426 38.6407C37.0906 40.9103 35.1902 42.5919 33.0711 42.838C29.7625 43.2208 28.2996 40.4454 29.9402 36.9318C30.6785 35.3595 32.2781 34.006 33.8367 33.6232C34.6707 33.4044 36.0652 33.5275 36.7215 33.8556Z" fill="#404040"/>
<path d="M48.8757 24.1349C48.6296 24.6271 44.1453 34.6896 44.1453 34.7579C44.1453 34.7853 44.5964 34.8536 45.1433 34.9083L46.155 35.004L46.8796 34.4571C49.655 32.3517 52.9226 32.4884 54.0574 34.7443C55.2058 37.0548 53.4695 40.9786 50.7488 42.2501C49.9558 42.6329 49.6277 42.7013 48.5203 42.7423C47.3035 42.797 47.1804 42.7696 46.4695 42.4005C45.4167 41.84 44.8972 40.9923 44.8972 39.8029V38.9415H43.6394H42.3816L42.2859 39.4337C42.1218 40.295 42.2996 41.9767 42.6003 42.5646C44.241 45.7228 49.9832 45.9005 53.6746 42.9064C56.696 40.4728 58.0906 35.7423 56.614 33.0079C56.1628 32.1739 55.3835 31.504 54.4128 31.1212C53.7703 30.8614 53.3738 30.8204 52.0066 30.8204C50.2019 30.8204 49.3406 31.0529 48.1511 31.8458C47.823 32.0646 47.5632 32.215 47.5632 32.1876C47.5632 32.1603 48.1785 30.7931 48.9304 29.1525L50.2839 26.1583L54.5906 26.1173L58.8972 26.09L59.0476 25.5021C59.1296 25.1876 59.2527 24.7501 59.321 24.5314C59.5945 23.7247 59.9089 23.7657 54.2625 23.7657H49.0808L48.8757 24.1349Z" fill="#404040"/>
</svg>
